<?xml version="1.0" standalone="no"?>
<!DOCTYPE svg PUBLIC "-//W3C//DTD SVG 20010904//EN"
 "http://www.w3.org/TR/2001/REC-SVG-20010904/DTD/svg10.dtd">
<svg version="1.0" xmlns="http://www.w3.org/2000/svg"
 width="500.000000pt" height="500.000000pt" viewBox="0 0 500.000000 500.000000"
 preserveAspectRatio="xMidYMid meet">

<g transform="translate(0.000000,500.000000) scale(0.100000,-0.100000)"
fill="#000000" stroke="none">
<path d="M2354 4834 c-18 -14 -18 -15 6 -8 31 8 50 24 29 24 -8 0 -24 -7 -35
-16z"/>
<path d="M2340 4670 c0 -80 4 -130 10 -130 6 0 10 50 10 130 0 80 -4 130 -10
130 -6 0 -10 -50 -10 -130z"/>
<path d="M2002 4770 c-18 -4 -35 -9 -37 -12 -7 -7 37 -243 48 -253 6 -7 7 8 3
44 -11 84 27 96 97 32 43 -40 97 -63 97 -42 0 6 -8 11 -19 11 -10 0 -37 17
-61 38 l-42 37 17 37 c23 48 8 92 -37 107 -17 6 -31 11 -32 10 -1 -1 -16 -5
-34 -9z m71 -22 c45 -36 16 -118 -43 -118 -26 0 -29 4 -35 43 -3 23 -9 50 -11
59 -7 26 59 38 89 16z"/>
<path d="M2646 4758 c-36 -57 -126 -209 -126 -213 0 -18 22 1 41 35 l23 40 50
-6 c64 -8 73 -16 81 -65 4 -21 11 -39 16 -39 5 0 9 3 9 8 1 20 -66 262 -72
262 -4 0 -14 -10 -22 -22z m32 -69 c7 -28 12 -54 12 -59 0 -7 -79 -2 -88 6 -5
4 52 104 59 104 3 0 11 -23 17 -51z"/>
<path d="M1693 4687 c-29 -11 -53 -23 -53 -28 0 -7 80 -231 85 -236 5 -7 109
35 113 45 2 8 -15 5 -48 -8 l-51 -20 -13 32 c-31 76 -31 78 13 95 54 21 53 36
0 18 -52 -19 -48 -19 -58 8 -24 64 -24 64 16 77 39 13 60 26 52 34 -2 2 -28
-5 -56 -17z"/>
<path d="M2898 4667 c-16 -13 -5 -17 95 -37 277 -55 569 -178 809 -342 535
-365 888 -968 947 -1618 53 -575 -134 -1181 -499 -1615 -204 -243 -441 -431
-715 -566 -240 -118 -447 -181 -705 -214 -218 -28 -546 -13 -755 35 -797 181
-1426 770 -1649 1545 -64 223 -80 349 -80 615 0 169 5 260 16 325 9 50 14 92
12 94 -2 2 -12 -3 -22 -13 -25 -22 -42 -137 -49 -336 -29 -797 366 -1543 1048
-1975 245 -156 547 -269 849 -320 134 -23 428 -31 575 -16 765 78 1448 548
1785 1228 111 225 178 443 222 718 16 104 16 454 0 570 -69 484 -273 918 -591
1257 -287 306 -644 520 -1058 633 -155 43 -212 50 -235 32z"/>
<path d="M1340 4514 c0 -12 123 -225 129 -222 60 29 111 61 111 69 0 6 -24 -3
-54 -19 l-54 -29 -58 103 c-51 90 -74 120 -74 98z"/>
<path d="M1103 4352 l-43 -37 70 -85 c104 -125 91 -119 144 -75 26 21 44 40
41 43 -3 3 -23 -10 -46 -28 -23 -18 -44 -28 -48 -23 -3 5 -19 26 -36 47 l-29
38 34 28 c19 16 32 31 29 35 -4 3 -21 -6 -38 -21 l-32 -27 -30 29 c-16 15 -29
31 -29 36 0 4 17 23 38 43 50 47 28 45 -25 -3z"/>
<path d="M879 4143 c-78 -85 -92 -103 -86 -109 3 -3 19 9 35 27 l30 33 88 -77
c49 -42 92 -77 96 -77 19 0 1 20 -83 92 l-89 77 31 36 c42 47 22 45 -22 -2z"/>
<path d="M650 3848 c-25 -41 -25 -70 -2 -91 24 -22 45 -21 119 5 l63 23 21
-22 c20 -19 21 -25 9 -53 -7 -17 -22 -37 -33 -45 -12 -8 -18 -18 -14 -21 11
-11 48 27 64 64 12 30 12 37 -2 58 -23 35 -58 40 -117 15 -58 -24 -79 -26 -96
-9 -19 19 -14 44 14 77 20 24 22 31 10 31 -9 0 -25 -15 -36 -32z"/>
<path d="M588 3513 c-60 -2 -108 -7 -108 -11 0 -4 47 -51 105 -105 58 -54 105
-92 105 -84 0 9 -13 27 -30 40 -34 29 -36 40 -14 93 20 48 28 54 82 54 23 0
42 5 42 10 0 6 -17 9 -37 8 -21 -1 -86 -4 -145 -5z m52 -32 c0 -10 -29 -81
-33 -81 -2 0 -23 20 -47 45 l-44 45 62 0 c34 0 62 -4 62 -9z"/>
<path d="M422 3213 c-19 -8 -42 -59 -42 -95 l0 -33 122 -22 c112 -20 140 -22
126 -8 -2 3 -57 15 -121 27 -116 21 -116 22 -111 47 10 40 33 71 53 71 31 0
63 -34 71 -76 l8 -39 1 43 c2 66 -51 108 -107 85z"/>
<path d="M4115 2904 c-20 -36 -35 -67 -32 -70 5 -5 120 95 136 119 10 15 7 17
-28 17 -38 0 -40 -2 -76 -66z"/>
<path d="M664 2770 c21 -4 42 -13 47 -21 5 -8 9 -134 9 -280 0 -294 0 -292
-65 -302 -16 -2 17 -4 75 -4 74 -1 94 2 66 7 -66 12 -66 14 -66 299 l0 256
188 -282 c125 -189 193 -283 205 -283 16 0 17 21 17 294 0 221 3 297 12 302 7
4 28 11 48 15 22 4 -4 7 -70 7 -66 0 -92 -3 -70 -7 71 -14 72 -16 68 -285 l-3
-199 -164 247 -164 246 -86 -1 c-68 -1 -78 -3 -47 -9z"/>
<path d="M1910 2777 c0 -18 -196 -559 -209 -577 -10 -14 -32 -28 -52 -31 -19
-4 18 -6 81 -6 74 0 99 2 70 6 -81 12 -83 18 -43 134 l27 78 119 -3 120 -3 28
-75 c36 -92 37 -118 7 -124 -13 -3 -32 -7 -43 -9 -11 -3 36 -5 105 -4 69 0
115 2 102 4 -29 6 -32 12 -152 323 -56 146 -104 271 -107 278 -4 10 -53 19
-53 9z m48 -225 c29 -81 52 -150 52 -154 0 -5 -50 -8 -111 -8 -85 0 -110 3
-107 13 3 6 27 76 54 154 27 79 51 143 54 143 3 0 29 -67 58 -148z"/>
<path d="M2675 2771 c22 -4 46 -10 53 -14 9 -6 12 -75 12 -287 0 -212 -3 -281
-12 -287 -7 -4 -31 -10 -53 -14 -26 -4 -3 -7 65 -7 73 0 95 2 72 8 -19 4 -38
12 -43 17 -5 5 -8 116 -7 260 l3 251 112 -267 c61 -146 118 -267 125 -269 9
-1 46 88 113 273 l100 275 3 -243 c1 -133 0 -252 -3 -264 -3 -12 -17 -26 -32
-31 -21 -8 1 -10 92 -10 66 0 109 3 95 5 -60 11 -60 11 -60 303 0 292 0 291
60 303 14 3 -13 4 -58 3 l-84 -1 -90 -245 c-49 -135 -93 -248 -97 -252 -4 -4
-55 107 -115 247 l-108 255 -91 -1 c-67 -1 -81 -3 -52 -8z"/>
<path d="M4080 2777 c0 -18 -196 -559 -209 -577 -10 -14 -32 -28 -52 -31 -19
-4 18 -6 81 -6 74 0 99 2 70 6 -81 12 -83 18 -43 134 l27 78 119 -3 120 -3 28
-75 c36 -92 37 -118 7 -124 -13 -3 -32 -7 -43 -9 -11 -3 36 -5 105 -4 69 0
115 2 102 4 -29 6 -32 12 -152 323 -56 146 -104 271 -107 278 -4 10 -53 19
-53 9z m48 -225 c29 -81 52 -150 52 -154 0 -5 -50 -8 -111 -8 -85 0 -110 3
-107 13 3 6 27 76 54 154 27 79 51 143 54 143 3 0 29 -67 58 -148z"/>
</g>
</svg>
